<svg width="346" height="75" viewBox="0 0 346 75" version="1.1" xmlns="http://www.w3.org/2000/svg" xmlns:xlink="http://www.w3.org/1999/xlink">
<g>
<use xlink:href="#path0_fill" fill="#ffffff"/>
<use xlink:href="#path1_fill" fill="#ffffff"/>
<use xlink:href="#path2_fill" fill="#ffffff"/>
<use xlink:href="#path3_fill" fill="#ffffff"/>
<use xlink:href="#path4_fill" fill="#ffffff"/>
</g>
<defs>
<path id="path0_fill" fill-rule="evenodd" d="M 161.412 8.5C 118.412 8.5 116.412 75 161.412 75C 206.412 75 204.412 8.5 161.412 8.5ZM 161.412 18.5C 130.912 18.5 130.912 65 161.412 65C 191.912 65 191.912 18.5 161.412 18.5Z"/>
<path id="path1_fill" d="M 205.412 16L 205.412 69C 205.412 74.5 215.412 74.5 215.412 69L 215.412 16C 215.412 10.5 205.412 10.5 205.412 16Z"/>
<path id="path2_fill" fill-rule="evenodd" d="M 231.412 16L 230.912 69C 230.912 74 241.412 74 241.412 69L 241.412 52L 246.412 52L 267.412 70.5C 273.912 76.5 281.427 69.1779 275.412 63.5L 263.912 53.5C 261.412 51 262.412 50.4641 263.412 50C 270.964 46.4951 274.912 41 274.912 30.5C 274.912 19.7091 264.412 12 259.912 12L 235.412 12C 231.412 12 231.412 16 231.412 16ZM 241.412 41L 241.412 22L 252.912 22C 267.912 22 267.761 41 252.412 41L 241.412 41Z"/>
<path id="path3_fill" fill-rule="evenodd" d="M 311.412 15.5C 313.912 11 317.319 11 319.912 15.5L 345.412 65.5C 348.319 72 337.819 75 334.912 69.5L 329.912 59.5L 298.912 59.5L 291.912 70.5C 288.819 75.5 279.819 71 282.412 66.5L 311.412 15.5ZM 305.912 45.5L 313.912 31C 315.083 29.201 315.74 29.0225 316.912 31L 323.912 46C 325.412 49 324.912 49 319.912 49L 308.912 49C 304.912 49 304.412 48 305.912 45.5Z"/>
<path id="path4_fill" d="M 44.412 6.00005L 1.91185 62C -0.680858 65.5 -0.59329 68.9022 1.91172 71C 4.41674 73.0978 7.81927 71.5 10.4121 68.5L 50.9119 16.5001L 65.912 56.5C 65.912 56.5 67.4119 61 71.412 61.5C 75.412 62 77.912 57.5 77.912 57.5L 93.4119 30.5001L 112.912 68.5001C 112.912 68.5001 116.537 75.0001 120.912 72.5001C 125.287 70 122.412 64.5 122.412 64.5L 101.912 19.5C 101.912 19.5 98.912 12.5 94.912 12.5C 90.912 12.5 87.912 18 87.912 18L 72.9119 42.5L 59.4119 6.5C 59.4119 6.5 57.4119 4.28935e-05 52.9119 2.29972e-10C 48.4119 -4.2893e-05 44.412 6.00005 44.412 6.00005Z"/>
</defs>
</svg>
