<svg xmlns="http://www.w3.org/2000/svg" width="200px" height="200px" viewBox="0 0 200 200"> <g stroke="none" stroke-width="1" fill="none" fill-rule="evenodd"> <g id="vo-mark-inverse" fill="#2D2D2D"> <g id="mark-copy"> <path d="M200,100.000983 C200,155.229718 155.225787,200 99.9980342,200 C44.7712642,200 0,155.229718 0,100.000983 C0,44.7722471 44.7712642,0 99.9980342,0 C155.225787,0 200,44.7722471 200,100.000983 Z M147.507275,103.201988 L140.891997,91.7931605 L154.846619,71.9717422 L116.275683,90.6077363 L115.491833,85.0013535 L126.762764,66.6157164 L125.146666,63.5873044 L130.349876,41.9701546 L110.129197,63.2705881 L108.915462,51.5068368 L114.961358,33.8692534 L106.891307,36.5799434 L99.8451954,14.9808917 L92.8019309,36.5799434 L84.7318796,33.8692534 L90.7787242,51.5068368 L89.565939,63.2705881 L69.3424132,41.9701546 L74.5456224,63.5873044 L72.9304734,66.6157164 L84.2014047,85.0013535 L83.4194524,90.6077363 L44.8466188,71.9717422 L58.8040876,91.7931605 L52.1859623,103.201988 L81.813793,118.194236 L82.2863808,123.191316 L59.8261296,116.078771 L71.1179383,130.248562 L72.0612158,134.745934 L85.8241454,140.931456 L87.2381126,145.179477 L81.0697996,142.57637 L97.7062143,161.91819 L97.7062143,184.980892 L101.984177,184.980892 L101.984177,161.91819 L118.623438,142.57637 L112.455125,145.179477 L113.870041,140.931456 L127.63392,134.745934 L128.578146,130.248562 L139.866159,116.078771 L117.407806,123.191316 L117.877547,118.194236 L147.507275,103.201988 Z" id="Combined-Shape"></path> </g> </g> </g> </svg>