<svg viewBox="0 0 16 16" xmlns="http://www.w3.org/2000/svg"><path fill-rule="evenodd" d= "M3.00293 12.002H12.9971V6.25293L8.01367 9.15137L3.00293 6.2666V12.002ZM8 7.83203L12.7305 5.00195H3.29688L8 7.83203ZM1.99805 5.00195C1.99805 4.72396 2.09603 4.48698 2.29199 4.29102C2.48796 4.09505 2.72493 3.99707 3.00293 3.99707H12.9971C13.2751 3.99707 13.512 4.09505 13.708 4.29102C13.904 4.48698 14.002 4.72396 14.002 5.00195V12.002C14.002 12.2845 13.904 12.5215 13.708 12.7129C13.512 12.9043 13.2751 13 12.9971 13H3.00293C2.72493 13 2.48796 12.902 2.29199 12.7061C2.09603 12.5101 1.99805 12.2754 1.99805 12.002V5.00195Z" clip-rule="evenodd"/></svg>