<?xml version="1.0" standalone="no"?>
<!DOCTYPE svg PUBLIC "-//W3C//DTD SVG 20010904//EN"
 "http://www.w3.org/TR/2001/REC-SVG-20010904/DTD/svg10.dtd">
<svg version="1.0" xmlns="http://www.w3.org/2000/svg"
 width="1039.000000pt" height="1039.000000pt" viewBox="0 0 1039.000000 1039.000000"
 preserveAspectRatio="xMidYMid meet">
<metadata>
Created by potrace 1.15, written by Peter Selinger 2001-2017
</metadata>
<g transform="translate(0.000000,1039.000000) scale(0.100000,-0.100000)"
fill="#000000" stroke="none">
<path d="M4913 9753 c-35 -2 -63 -8 -63 -13 0 -6 -12 -10 -27 -10 -16 -1 -64
-7 -108 -16 -98 -18 -98 -18 -110 -25 -5 -4 -40 -12 -77 -19 -37 -8 -65 -17
-63 -21 3 -4 -12 -10 -33 -14 -20 -3 -46 -12 -57 -19 -11 -7 -33 -16 -50 -20
-16 -4 -57 -21 -90 -37 -33 -16 -65 -29 -72 -29 -7 0 -13 -4 -13 -9 0 -5 -16
-15 -35 -22 -19 -7 -35 -16 -35 -20 0 -3 -20 -14 -45 -23 -25 -10 -45 -21 -45
-25 0 -4 -11 -13 -25 -19 -14 -7 -31 -17 -38 -22 -7 -6 -34 -25 -61 -42 -27
-18 -59 -41 -71 -52 -13 -12 -29 -26 -37 -31 -89 -67 -249 -219 -316 -299 -12
-15 -28 -24 -34 -20 -7 4 -8 3 -4 -5 7 -10 -18 -51 -62 -101 -14 -15 -57 -73
-80 -106 -15 -22 -28 -44 -61 -105 -13 -24 -26 -46 -30 -49 -10 -8 -71 -134
-71 -146 0 -6 -6 -17 -14 -23 -8 -7 -18 -27 -22 -44 -4 -18 -15 -48 -25 -67
-11 -19 -19 -42 -19 -50 0 -8 -6 -27 -14 -42 -8 -15 -17 -42 -21 -60 -4 -18
-15 -58 -25 -88 -10 -30 -23 -95 -30 -145 -8 -49 -18 -93 -24 -97 -15 -10 -15
-676 0 -686 5 -4 18 -60 28 -124 10 -65 22 -118 26 -118 4 0 13 -31 20 -70 7
-38 17 -70 21 -70 4 0 12 -23 19 -50 7 -28 16 -53 21 -56 5 -3 16 -30 25 -60
8 -29 19 -54 23 -54 5 0 14 -20 21 -45 7 -24 16 -43 19 -40 4 2 13 -13 21 -33
7 -20 16 -39 20 -42 4 -3 18 -25 31 -49 13 -24 30 -55 38 -69 8 -15 22 -35 33
-46 10 -11 18 -23 18 -28 0 -4 8 -17 18 -27 46 -51 63 -75 58 -87 -3 -8 -2
-13 2 -13 20 3 31 -3 37 -20 3 -11 63 -77 133 -148 69 -70 125 -132 123 -138
-1 -5 1 -7 4 -3 4 4 24 -5 44 -20 42 -31 52 -43 45 -54 -3 -4 1 -5 8 -3 7 3
22 -1 33 -10 11 -8 37 -28 58 -45 21 -16 47 -32 58 -35 10 -4 19 -10 19 -14 0
-5 14 -14 30 -21 17 -7 30 -16 30 -20 0 -5 16 -14 35 -20 19 -6 35 -15 35 -19
0 -5 20 -16 45 -25 25 -10 45 -21 45 -26 0 -4 20 -13 45 -20 25 -7 45 -16 45
-20 0 -4 20 -13 45 -20 25 -7 45 -16 45 -20 0 -5 24 -13 53 -20 28 -7 61 -18
72 -24 11 -7 48 -18 83 -26 34 -7 62 -16 62 -20 0 -4 41 -13 90 -20 50 -7 90
-16 90 -20 0 -12 248 -30 415 -30 167 0 415 18 415 30 0 4 41 13 90 20 50 7
90 16 90 20 0 4 28 13 63 20 34 8 71 19 82 26 11 6 44 17 73 24 28 7 52 15 52
20 0 4 20 13 45 20 25 7 45 16 45 20 0 4 20 13 45 20 25 7 45 16 45 20 0 5 20
16 45 26 25 9 45 20 45 25 0 4 16 13 35 19 19 6 35 15 35 20 0 4 14 13 30 20
17 7 30 16 30 21 0 4 9 10 19 14 11 3 37 19 58 35 21 17 47 37 58 45 11 9 26
13 33 10 7 -2 11 -1 8 3 -7 11 3 23 45 54 20 15 40 24 44 20 3 -4 5 -2 4 3 -2
6 54 68 124 138 69 71 129 137 132 148 6 17 17 23 37 20 4 0 5 6 2 13 -3 8 3
23 13 33 10 11 34 41 52 69 19 27 38 51 41 54 4 3 13 17 21 31 47 87 62 115
69 119 4 3 13 22 21 43 7 20 16 37 21 37 4 0 13 18 19 40 7 22 15 40 19 40 4
0 12 19 19 43 7 23 19 52 26 64 8 11 19 42 26 67 6 25 15 46 19 46 4 0 13 32
20 70 7 39 16 70 20 70 4 0 15 51 24 113 10 61 23 123 29 136 16 33 17 668 1
679 -6 4 -16 46 -23 94 -6 48 -20 115 -31 147 -10 33 -22 76 -26 96 -3 19 -10
35 -14 35 -4 0 -11 17 -15 38 -3 20 -14 53 -24 72 -10 20 -22 50 -25 67 -4 17
-14 37 -22 44 -8 6 -14 17 -14 23 0 12 -61 138 -71 146 -4 3 -17 25 -30 49
-33 61 -46 83 -61 105 -22 31 -66 90 -80 106 -43 51 -68 92 -62 102 4 6 3 8
-4 4 -6 -3 -30 15 -54 41 -92 103 -190 194 -302 283 -10 8 -26 22 -35 30 -9 8
-39 30 -66 47 -28 18 -55 37 -62 43 -7 5 -24 15 -38 22 -14 6 -25 15 -25 19 0
4 -20 15 -45 25 -25 9 -45 20 -45 23 0 4 -16 13 -35 20 -19 7 -35 17 -35 22 0
5 -6 9 -13 9 -7 0 -39 13 -72 30 -33 16 -67 30 -75 30 -8 0 -31 9 -51 19 -20
11 -53 23 -73 26 -20 4 -34 10 -31 14 2 4 -26 13 -63 21 -37 7 -71 15 -77 19
-12 7 -12 7 -110 25 -44 9 -92 15 -107 16 -14 0 -28 5 -30 12 -4 11 -489 20
-625 11z"/>
<path d="M3215 5668 c-16 -6 -32 -14 -35 -18 -7 -9 -134 -70 -147 -70 -6 0
-13 -4 -15 -10 -1 -5 -27 -18 -55 -28 -29 -10 -51 -21 -48 -24 3 -3 -15 -11
-40 -18 -24 -7 -42 -16 -39 -21 3 -5 0 -9 -6 -9 -6 0 -27 -7 -48 -17 -20 -9
-40 -15 -44 -15 -5 1 -8 -2 -8 -6 0 -5 -18 -15 -40 -22 -22 -7 -40 -16 -40
-20 0 -4 -18 -12 -40 -19 -22 -6 -40 -15 -40 -20 0 -4 -18 -14 -40 -21 -22 -7
-40 -17 -40 -22 0 -5 -5 -6 -11 -2 -6 3 -14 2 -18 -3 -7 -11 -136 -73 -151
-73 -6 0 -10 -4 -10 -8 0 -5 -25 -17 -55 -27 -30 -11 -55 -22 -55 -26 0 -4
-17 -13 -37 -20 -21 -6 -40 -15 -43 -19 -3 -3 -54 -30 -115 -59 -60 -29 -117
-57 -125 -62 -29 -17 -83 -39 -96 -39 -8 0 -14 -4 -14 -9 0 -5 -22 -17 -50
-26 -27 -9 -50 -20 -50 -24 0 -4 -18 -14 -40 -21 -22 -7 -40 -17 -40 -22 0 -4
-6 -8 -12 -8 -50 -1 -224 -129 -229 -167 -1 -5 -5 -18 -10 -31 -19 -51 -4
-222 20 -222 5 0 14 -15 22 -32 7 -18 16 -35 19 -38 13 -11 70 -108 70 -118 0
-7 4 -12 8 -12 5 0 17 -18 27 -40 10 -22 21 -40 25 -40 4 0 13 -13 20 -30 7
-16 16 -30 19 -30 4 0 15 -16 24 -36 10 -19 22 -40 27 -47 6 -7 44 -64 85
-127 81 -124 104 -157 121 -175 6 -6 19 -26 28 -44 9 -17 25 -40 34 -50 36
-39 52 -66 47 -79 -2 -7 -1 -11 3 -8 9 5 31 -21 117 -140 33 -45 74 -98 88
-114 7 -8 27 -33 42 -55 16 -22 67 -86 113 -143 48 -59 80 -107 76 -114 -4 -6
-3 -8 3 -5 5 3 27 -15 49 -40 21 -26 46 -54 54 -63 67 -72 120 -141 115 -150
-3 -5 0 -7 8 -4 8 3 21 -5 29 -18 9 -13 32 -41 51 -62 20 -22 33 -44 30 -49
-3 -6 -2 -7 4 -4 5 3 50 -37 99 -90 49 -52 158 -165 242 -249 84 -85 150 -158
147 -164 -3 -5 0 -7 8 -4 16 6 41 -21 33 -35 -4 -5 -1 -13 5 -17 8 -5 9 -3 4
6 -5 8 -3 11 6 8 8 -3 13 -11 12 -17 -2 -6 3 -10 10 -8 6 1 11 -6 11 -15 -1
-10 3 -15 8 -12 6 4 20 -3 32 -15 11 -12 53 -51 93 -88 40 -36 70 -71 66 -77
-3 -6 -3 -8 1 -4 12 10 91 -51 91 -70 1 -9 7 -16 14 -14 17 4 76 -47 76 -67 1
-9 7 -15 14 -13 7 1 38 -19 70 -45 64 -54 113 -100 92 -88 -9 5 -12 4 -7 -3 4
-6 13 -9 21 -5 8 3 15 1 15 -4 0 -5 14 -17 31 -27 18 -10 28 -24 25 -31 -3 -9
0 -12 8 -9 8 3 29 -8 47 -24 19 -16 44 -37 56 -47 12 -10 20 -22 17 -27 -3 -4
1 -5 9 -2 17 6 50 -23 42 -37 -4 -5 0 -6 8 -3 17 6 50 -23 42 -37 -4 -5 0 -6
8 -4 14 6 64 -32 60 -46 -2 -4 3 -6 11 -3 16 6 49 -23 41 -37 -4 -5 0 -6 8 -4
7 3 23 -2 35 -12 12 -10 38 -29 58 -43 56 -39 84 -66 77 -74 -4 -4 -1 -4 8 -1
14 5 24 -1 87 -51 15 -12 38 -27 51 -34 28 -14 34 -19 75 -55 16 -14 33 -25
38 -25 5 0 6 -5 2 -12 -4 -6 -3 -8 4 -5 16 10 44 -4 38 -19 -3 -7 0 -11 7 -8
15 6 79 -40 70 -50 -4 -4 -1 -4 8 -1 8 3 25 -2 37 -12 12 -10 39 -29 61 -42
22 -14 38 -28 35 -33 -3 -4 1 -5 9 -2 8 3 21 -1 28 -9 49 -49 319 -49 368 0 7
8 20 12 28 9 8 -3 12 -2 9 2 -3 5 13 19 35 33 22 13 49 32 61 42 12 10 29 15
37 12 9 -3 12 -3 9 1 -14 13 54 60 72 49 5 -3 7 0 4 8 -6 16 22 31 38 20 7 -3
8 -1 4 5 -4 7 -3 12 2 12 5 0 22 11 38 25 41 36 47 41 74 55 13 7 33 21 44 31
11 11 23 19 26 19 4 0 17 9 30 20 13 12 31 18 39 15 9 -3 12 -3 8 1 -7 8 21
35 77 74 20 14 46 33 58 43 12 10 28 15 35 12 8 -2 12 -1 8 4 -8 14 25 43 41
37 8 -3 13 -1 11 3 -3 14 45 52 59 47 8 -3 11 1 8 9 -7 16 31 39 48 29 6 -4 8
-3 4 4 -9 14 23 44 41 38 8 -3 12 -2 9 2 -3 5 5 17 17 27 12 10 37 31 56 47
18 16 39 27 47 24 8 -3 11 0 8 9 -3 7 7 21 25 31 17 10 31 22 31 27 0 5 7 7
15 4 8 -4 17 -1 21 5 5 7 2 8 -7 3 -21 -12 28 34 92 88 32 26 63 46 70 45 7
-2 13 4 14 13 0 20 59 70 77 67 7 -2 12 4 10 13 -1 9 10 25 25 35 16 10 34 24
41 31 8 7 18 10 24 7 6 -4 8 -2 5 3 -4 6 19 34 51 63 31 29 74 68 94 87 20 19
41 32 46 29 6 -3 9 2 8 12 0 9 5 16 11 15 7 -2 12 2 10 8 -1 6 4 14 12 17 9 3
11 0 6 -8 -5 -9 -4 -11 4 -6 6 4 9 12 5 17 -8 14 17 41 33 35 8 -3 11 -1 8 4
-3 6 64 81 150 167 86 87 195 199 243 250 47 50 90 89 96 86 5 -3 6 -1 3 4 -4
6 5 23 19 39 14 16 37 44 51 62 15 19 32 31 40 28 8 -3 11 -1 8 4 -4 6 17 38
47 73 29 34 64 75 78 91 59 69 88 95 95 88 5 -4 5 -2 2 4 -4 7 24 51 63 99 38
48 77 99 87 112 22 31 64 84 81 103 14 17 58 75 87 114 11 16 31 43 45 62 14
18 33 45 43 59 10 14 22 23 28 20 5 -3 6 0 3 8 -6 17 23 50 37 42 5 -4 6 2 2
11 -4 10 0 21 9 28 8 6 23 27 33 46 10 18 23 39 29 45 20 21 85 117 234 350
25 39 52 81 61 95 9 14 23 37 30 53 8 15 18 27 23 27 4 0 8 5 8 12 0 10 57
107 70 118 3 3 12 20 19 38 8 17 17 32 22 32 24 0 39 171 20 222 -5 13 -10 28
-12 33 -4 14 -18 31 -57 68 -33 32 -146 96 -169 97 -7 0 -13 4 -13 8 0 5 -18
15 -40 22 -22 7 -40 17 -40 21 0 4 -22 15 -50 24 -27 9 -50 21 -50 26 0 5 -6
9 -13 9 -7 0 -35 11 -63 24 -184 88 -270 131 -274 136 -3 4 -22 13 -42 19 -21
7 -38 16 -38 20 0 4 -25 15 -55 26 -30 10 -55 22 -55 27 0 4 -4 8 -10 8 -15 0
-144 62 -151 73 -4 5 -12 6 -18 3 -6 -4 -11 -3 -11 2 0 5 -18 15 -40 22 -22 7
-40 17 -40 21 0 5 -18 14 -40 20 -22 7 -40 15 -40 19 0 4 -18 13 -40 20 -22 7
-40 17 -40 22 0 4 -3 7 -7 6 -5 0 -25 6 -45 15 -21 10 -42 17 -48 17 -6 0 -9
4 -6 9 3 5 -15 14 -39 21 -25 7 -43 15 -40 18 3 3 -19 14 -48 24 -28 10 -53
23 -55 28 -2 6 -9 10 -15 10 -13 0 -140 61 -147 71 -10 14 -86 29 -145 29 -70
0 -118 -12 -141 -35 -9 -9 -23 -14 -31 -11 -8 3 -12 2 -8 -3 5 -9 -13 -34 -57
-82 -10 -10 -18 -23 -18 -27 0 -10 -59 -101 -77 -120 -7 -7 -13 -18 -13 -23 0
-6 -5 -7 -12 -3 -7 4 -8 3 -4 -5 8 -12 -43 -101 -57 -101 -5 0 -5 -4 -2 -10 3
-5 1 -10 -4 -10 -6 0 -11 -7 -11 -15 0 -9 -7 -18 -15 -21 -8 -4 -15 -10 -15
-15 0 -5 -16 -32 -35 -60 -19 -28 -35 -56 -35 -61 0 -5 -5 -6 -12 -2 -6 4 -8
3 -5 -2 3 -6 -10 -30 -28 -54 -77 -100 -117 -154 -139 -184 -10 -14 -23 -23
-29 -19 -6 3 -7 1 -3 -5 10 -17 -13 -55 -29 -48 -9 3 -12 0 -9 -8 3 -7 -6 -24
-18 -38 -13 -14 -32 -37 -43 -51 -11 -13 -24 -22 -29 -19 -5 3 -6 0 -2 -6 4
-6 -1 -20 -11 -30 -10 -10 -29 -33 -43 -52 -14 -19 -37 -48 -51 -64 -14 -17
-34 -41 -44 -53 -10 -12 -22 -20 -27 -17 -5 3 -7 1 -6 -4 5 -16 -62 -93 -74
-86 -6 4 -8 2 -4 -4 8 -13 -90 -127 -109 -127 -8 0 -17 -4 -22 -9 -4 -5 -3 -6
5 -2 39 23 -11 -33 -200 -225 -117 -118 -234 -233 -259 -257 -45 -41 -68 -54
-53 -30 4 7 3 8 -5 4 -6 -4 -9 -12 -5 -17 6 -11 -64 -78 -81 -78 -17 0 -87 67
-81 78 4 5 1 13 -5 17 -8 4 -9 3 -5 -4 4 -7 4 -12 0 -12 -22 0 -515 500 -512
519 2 9 -4 16 -12 16 -21 0 -122 113 -114 127 4 6 3 8 -4 4 -12 -7 -79 70 -74
86 1 5 -1 7 -6 4 -8 -5 -60 52 -126 138 -21 28 -43 54 -48 57 -6 4 -7 12 -3
19 5 7 4 11 -1 8 -5 -3 -18 6 -29 19 -11 14 -30 37 -43 51 -12 14 -20 32 -17
39 2 8 1 12 -4 8 -14 -8 -43 25 -37 42 3 8 2 12 -3 9 -5 -3 -17 6 -27 20 -22
30 -70 94 -82 109 -4 6 -23 33 -42 60 -19 28 -39 53 -45 57 -7 5 -7 8 0 8 6 0
5 4 -2 8 -11 7 -83 107 -83 116 0 3 -11 17 -25 32 -13 14 -22 30 -19 35 3 5 1
9 -4 9 -10 0 -72 95 -72 110 0 5 -6 15 -13 22 -18 19 -77 110 -77 120 0 4 -7
16 -15 26 -9 9 -26 29 -39 45 -13 15 -41 39 -62 54 -34 23 -50 27 -129 30 -50
1 -103 -2 -120 -9z"/>
</g>
</svg>
