<svg id="svg" xmlns="http://www.w3.org/2000/svg" xmlns:xlink="http://www.w3.org/1999/xlink" width="400" height="400" viewBox="0, 0, 400,400"><g id="svgg"><path id="path0" d="M302.903 108.548 L 302.903 132.903 273.025 132.903 C 247.701 132.903,242.634 132.979,239.780 133.403 C 222.170 136.018,210.627 147.311,207.603 164.884 C 206.988 168.459,206.810 231.278,207.404 234.941 C 210.296 252.754,221.779 264.342,239.084 266.912 C 244.244 267.678,293.597 267.667,298.088 266.899 C 315.670 263.892,327.494 252.512,330.342 235.856 C 330.949 232.304,330.968 229.966,330.968 158.194 L 330.968 84.194 316.935 84.194 L 302.903 84.194 302.903 108.548 M105.000 132.598 C 88.333 134.382,75.973 143.866,71.181 158.548 C 69.090 164.954,69.238 158.993,69.123 241.371 L 69.019 316.129 83.219 316.129 L 97.419 316.129 97.419 291.791 L 97.419 267.452 128.306 267.328 C 155.729 267.217,159.501 267.142,161.935 266.656 C 178.871 263.277,189.278 253.017,192.651 236.375 L 193.387 232.742 193.387 199.516 L 193.387 166.290 192.632 162.759 C 189.136 146.422,178.489 136.111,161.935 133.031 C 158.511 132.394,110.328 132.028,105.000 132.598 M160.204 161.878 C 162.231 162.795,163.286 163.860,164.257 165.968 L 165.000 167.581 165.000 199.516 C 165.000 235.613,165.136 233.611,162.505 236.165 C 159.783 238.807,159.553 238.833,138.226 238.970 C 127.935 239.036,114.542 238.987,108.462 238.862 L 97.408 238.635 97.494 203.430 L 97.581 168.226 98.323 166.613 C 99.160 164.794,100.659 163.096,102.097 162.338 C 104.641 160.995,104.558 160.999,132.097 161.065 L 158.548 161.129 160.204 161.878 M302.830 196.378 L 302.742 231.466 301.674 233.634 C 300.530 235.958,299.475 236.956,296.918 238.135 L 295.323 238.871 269.032 238.871 C 237.398 238.871,238.744 239.061,236.385 234.269 L 235.323 232.110 235.323 200.329 C 235.323 170.681,235.361 168.452,235.893 167.119 C 236.700 165.100,237.896 163.648,239.374 162.894 C 242.462 161.318,242.116 161.334,273.475 161.312 L 302.917 161.290 302.830 196.378 " stroke="none" fill="#fbfbfb" fill-rule="evenodd"></path><path id="path1" d="M19.677 0.665 C 10.459 3.065,3.318 10.250,0.971 19.487 C -0.053 23.517,-0.053 376.483,0.971 380.513 C 3.335 389.813,10.509 396.988,19.810 399.352 C 23.840 400.376,376.805 400.376,380.835 399.352 C 389.685 397.103,396.636 390.509,399.318 381.821 L 400.000 379.609 400.000 200.000 L 400.000 20.391 399.318 18.179 C 396.636 9.491,389.685 2.897,380.835 0.648 C 376.870 -0.359,23.550 -0.343,19.677 0.665 M331.205 159.274 C 331.111 230.038,331.073 234.494,330.530 236.774 C 326.570 253.403,316.436 263.226,299.355 266.994 C 296.294 267.669,247.945 268.034,241.613 267.430 C 223.033 265.656,210.000 253.472,207.263 235.317 C 206.548 230.570,206.550 170.860,207.266 165.806 C 209.907 147.162,223.023 134.696,241.880 132.908 C 243.904 132.716,257.123 132.581,273.952 132.581 L 302.581 132.581 302.581 108.387 L 302.581 84.194 316.942 84.194 L 331.304 84.194 331.205 159.274 M161.019 132.763 C 178.113 135.147,190.155 146.887,193.053 163.993 C 193.930 169.171,193.805 230.708,192.907 235.912 C 190.215 251.503,180.486 262.023,164.854 266.245 L 161.129 267.251 129.427 267.416 L 97.726 267.581 97.738 291.855 L 97.750 316.129 83.385 316.129 L 69.020 316.129 69.107 240.403 L 69.194 164.677 70.226 160.928 C 74.453 145.573,86.192 135.272,102.342 132.748 C 106.644 132.075,156.180 132.088,161.019 132.763 M106.001 161.324 C 103.476 161.692,101.623 162.631,100.048 164.340 C 97.630 166.964,97.749 164.931,97.739 203.839 L 97.731 238.548 127.494 238.548 C 160.438 238.548,158.858 238.644,161.856 236.472 C 165.095 234.126,165.214 232.677,165.088 197.097 C 164.977 165.363,165.058 166.535,162.809 163.974 C 161.449 162.425,159.787 161.728,156.459 161.310 C 153.163 160.897,108.844 160.909,106.001 161.324 M241.830 162.075 C 238.601 162.943,236.724 164.934,235.922 168.342 C 235.368 170.695,235.280 229.662,235.826 232.210 C 236.378 234.785,237.703 236.549,239.887 237.622 L 241.774 238.548 268.031 238.638 C 299.595 238.746,298.818 238.860,301.448 233.719 L 302.419 231.820 302.507 196.717 L 302.595 161.613 272.991 161.635 C 249.799 161.652,243.050 161.747,241.830 162.075 " stroke="none" fill="#343434" fill-rule="evenodd"></path><path id="path2" d="M258.468 132.822 C 266.585 132.870,279.867 132.870,287.984 132.822 C 296.101 132.775,289.460 132.735,273.226 132.735 C 256.992 132.735,250.351 132.775,258.468 132.822 M259.435 161.532 C 267.375 161.580,280.367 161.580,288.306 161.532 C 296.246 161.484,289.750 161.445,273.871 161.445 C 257.992 161.445,251.496 161.484,259.435 161.532 M97.575 204.032 C 97.575 222.839,97.614 230.580,97.661 221.234 C 97.709 211.889,97.709 196.502,97.661 187.041 C 97.614 177.580,97.575 185.226,97.575 204.032 M193.630 171.452 C 193.633 172.161,193.699 172.414,193.777 172.012 C 193.854 171.611,193.851 171.030,193.770 170.722 C 193.689 170.414,193.626 170.742,193.630 171.452 M235.306 186.613 C 235.306 192.645,235.350 195.067,235.403 191.995 C 235.456 188.924,235.456 183.988,235.403 181.028 C 235.349 178.067,235.306 180.581,235.306 186.613 M235.311 213.548 C 235.311 222.331,235.352 225.923,235.403 221.532 C 235.454 217.141,235.454 209.956,235.403 205.565 C 235.352 201.173,235.311 204.766,235.311 213.548 M164.914 228.387 C 164.914 229.008,164.980 229.262,165.061 228.952 C 165.142 228.641,165.142 228.133,165.061 227.823 C 164.980 227.512,164.914 227.766,164.914 228.387 M256.508 238.951 C 263.193 239.000,274.225 239.000,281.024 238.952 C 287.824 238.903,282.355 238.863,268.871 238.863 C 255.387 238.863,249.824 238.903,256.508 238.951 M97.573 292.097 C 97.573 305.403,97.612 310.894,97.661 304.298 C 97.710 297.702,97.710 286.815,97.661 280.104 C 97.612 273.394,97.573 278.790,97.573 292.097 " stroke="none" fill="#767676" fill-rule="evenodd"></path><path id="path3" d="M302.734 108.387 C 302.734 121.782,302.774 127.262,302.822 120.565 C 302.871 113.867,302.871 102.907,302.822 96.210 C 302.774 89.512,302.734 94.992,302.734 108.387 M302.736 195.161 C 302.736 213.702,302.775 221.286,302.823 212.016 C 302.870 202.746,302.870 187.577,302.823 178.306 C 302.775 169.036,302.736 176.621,302.736 195.161 M235.265 173.871 C 235.265 175.024,235.323 175.496,235.395 174.919 C 235.466 174.343,235.466 173.399,235.395 172.823 C 235.323 172.246,235.265 172.718,235.265 173.871 " stroke="none" fill="#949494" fill-rule="evenodd"></path><path id="path4" d="M331.126 156.935 C 331.126 197.032,331.164 213.388,331.210 193.281 C 331.256 173.174,331.256 140.367,331.210 120.377 C 331.164 100.388,331.126 116.839,331.126 156.935 M155.565 132.480 C 155.875 132.562,156.383 132.562,156.694 132.480 C 157.004 132.399,156.750 132.333,156.129 132.333 C 155.508 132.333,155.254 132.399,155.565 132.480 M182.567 143.306 C 183.358 144.149,184.048 144.839,184.099 144.839 C 184.342 144.839,184.086 144.549,182.661 143.212 L 181.129 141.774 182.567 143.306 M217.725 143.790 L 216.613 145.000 217.823 143.888 C 218.949 142.854,219.181 142.581,218.934 142.581 C 218.880 142.581,218.336 143.125,217.725 143.790 M206.929 198.548 C 206.929 214.339,206.968 220.751,207.016 212.798 C 207.064 204.845,207.064 191.926,207.016 184.089 C 206.968 176.251,206.929 182.758,206.929 198.548 M235.236 170.968 C 235.236 171.589,235.303 171.843,235.384 171.532 C 235.465 171.222,235.465 170.714,235.384 170.403 C 235.303 170.093,235.236 170.347,235.236 170.968 M119.919 238.951 C 126.351 239.000,136.875 239.000,143.306 238.951 C 149.738 238.903,144.476 238.863,131.613 238.863 C 118.750 238.863,113.488 238.903,119.919 238.951 M257.201 267.661 C 263.734 267.710,274.331 267.710,280.750 267.661 C 287.168 267.612,281.823 267.572,268.871 267.572 C 255.919 267.572,250.668 267.612,257.201 267.661 " stroke="none" fill="#9c9c9c" fill-rule="evenodd"></path></g></svg>