<svg viewBox="0 0 16 16" xmlns="http://www.w3.org/2000/svg"><path fill-rule="evenodd" d= "M10.0167 10.5322C10.3038 10.2633 10.6091 9.97168 10.9327 9.65723C11.2562 9.34277 11.5547 9.30403 11.8282 9.54101C11.974 9.66862 12.2793 9.92838 12.7442 10.3203C13.209 10.7214 13.5235 10.9993 13.6876 11.1543C13.8516 11.3092 13.9314 11.4893 13.9268 11.6943C13.9223 11.904 13.8402 12.0885 13.6807 12.248L12.1836 13.7998C12.0879 13.8636 11.9239 13.916 11.6915 13.957C11.2448 14.0391 10.7572 14.0003 10.2286 13.8408C9.70448 13.6813 9.22597 13.4831 8.79302 13.2461C7.76307 12.681 6.63287 11.7923 5.4024 10.5801C4.14458 9.30403 3.26503 8.18295 2.76372 7.2168C2.26242 6.25065 2.00949 5.50554 2.00494 4.98144C2.00038 4.46191 2.04823 4.12012 2.14849 3.95605L2.21685 3.83301C2.79563 3.25423 3.30604 2.74837 3.7481 2.31543C3.91672 2.15592 4.10585 2.07389 4.31548 2.06934C4.52512 2.06478 4.6869 2.13086 4.80083 2.26758C4.96946 2.44076 5.252 2.75976 5.64849 3.22461C6.04498 3.68945 6.32297 4.0039 6.48247 4.16797C6.71034 4.44141 6.66705 4.73535 6.35259 5.0498L5.46392 5.98633C5.40923 6.06836 5.38873 6.21419 5.4024 6.42383C5.41607 6.64258 5.46164 6.86133 5.53912 7.08008C5.61659 7.29883 5.77381 7.58821 6.0108 7.94824C6.24778 8.30827 6.55539 8.68196 6.93365 9.06933C7.7175 9.81673 8.36463 10.2725 8.87505 10.4365C9.38091 10.6006 9.72271 10.6484 9.90044 10.5801L10.0167 10.5322Z" clip-rule="evenodd"/></svg>