<svg viewBox="0 0 16 16" xmlns="http://www.w3.org/2000/svg">
    <path fill-rule="evenodd" d= "M15 8C15 11.866 11.866 15 8 15C4.13401 15 1 11.866 1 8C1 4.13401 4.13401 1 8 1C11.866 1 15 4.13401 15 8ZM3.93429 8.00591C3.63904 7.93563 3.59237 7.49698 3.87227 7.37965L10.8001 4.47578C11.0232 4.38225 11.2596 4.57774 11.2096 4.81445L9.7343 11.7988C9.67615 12.0741 9.29279 12.1327 9.14632 11.8925C8.66724 11.1068 7.82962 9.8758 6.93275 9.21435C6.10928 8.60702 4.83352 8.21995 3.93429 8.00591Z" clip-rule="evenodd"/>
</svg>