<svg viewBox="0 0 16 16" xmlns="http://www.w3.org/2000/svg"><path fill-rule="evenodd" d= "M5.86719 13C4.46809 13 3.17839 12.6217 1.99805 11.8652C2.54037 11.9564 3.16243 11.9154 3.86426 11.7422C4.56608 11.569 5.18815 11.266 5.73047 10.833C5.18359 10.8148 4.69597 10.6439 4.26758 10.3203C3.83919 9.99674 3.54525 9.57976 3.38574 9.06934C3.74577 9.15137 4.12174 9.13997 4.51367 9.03516C3.93034 8.91667 3.44727 8.625 3.06445 8.16016C2.68164 7.69531 2.49251 7.153 2.49707 6.5332C2.85254 6.72917 3.23763 6.83398 3.65234 6.84766C3.29687 6.61068 3.01888 6.3099 2.81836 5.94531C2.61784 5.58073 2.51758 5.17513 2.51758 4.72852C2.51758 4.29101 2.63379 3.8763 2.86621 3.48438C3.49512 4.25456 4.26074 4.87207 5.16309 5.33691C6.06543 5.80176 7.03385 6.06152 8.06836 6.11621C8.02279 5.9567 8 5.76302 8 5.53516C8 4.84244 8.24381 4.25 8.73145 3.75781C9.21908 3.26562 9.82291 3.01953 10.543 3.01953C11.263 3.01953 11.8646 3.28613 12.3477 3.81934C12.9036 3.70996 13.4368 3.50261 13.9473 3.19727C13.7604 3.79883 13.3936 4.26595 12.8467 4.59863C13.3708 4.53027 13.8561 4.39811 14.3027 4.20215C13.9245 4.73991 13.5007 5.17285 13.0312 5.50098L13.0518 5.83594C13.0518 7.25782 12.637 8.60449 11.8076 9.87598C10.9782 11.1475 9.84115 12.0475 8.39648 12.5762C7.61263 12.8587 6.76954 13 5.86719 13Z" clip-rule="evenodd"/></svg>