<svg viewBox="0 0 16 16" fill="currentColor" focusable="false"><g clip-path="url(#clip0)"><path d="M6.44151 13.494C6.4569 13.4769 6.45997 13.4736 6.47893 13.4534L6.78894 13.1266L7.23907 13.1423C7.41905 13.1485 7.59954 13.1517 7.77622 13.1517C8.99251 13.1516 10.1877 13.0024 11.3286 12.7084C12.475 12.4132 13.2126 11.7642 13.6032 10.7205C13.7898 10.2219 13.8758 9.71962 13.9523 8.85251C14.0932 7.2525 14.019 5.9886 13.7261 4.85964C13.5643 4.23578 13.33 3.75682 13.0116 3.37727C12.6064 2.89432 12.0949 2.63813 11.0858 2.3469C10.4535 2.16438 9.76751 2.06265 8.91626 2.02841C8.46664 2.01031 8.10509 2.00195 7.77729 2.00195C6.37872 2.00195 5.34356 2.16019 4.39297 2.51043C3.25193 2.93086 2.55865 3.7196 2.26508 4.93968C1.94931 6.2521 1.88597 7.68561 2.07667 9.33163C2.17136 10.1485 2.39357 10.8061 2.75351 11.3621C3.13817 11.9563 3.68309 12.3827 4.40024 12.6439L5.03295 12.8743L5.05741 13.5472C5.06302 13.7017 5.07017 13.8564 5.08872 14.237C5.09736 14.4141 5.10466 14.5666 5.11077 14.6997C5.65255 14.2307 6.08262 13.8443 6.44151 13.494ZM4.74012 16.1473C4.65897 16.1473 4.57715 16.1307 4.49982 16.0964C4.27973 15.999 4.13739 15.7779 4.13739 15.5335C4.13739 15.2604 4.11219 14.7426 4.0899 14.2857C4.07687 14.0183 4.065 13.7742 4.05807 13.5835C3.13949 13.249 2.41879 12.6852 1.91407 11.9056C1.46675 11.2146 1.19503 10.4104 1.08332 9.44679C0.879676 7.68902 0.948167 6.13823 1.29283 4.70575C1.66401 3.16312 2.59072 2.10876 4.04723 1.5721C5.11732 1.17783 6.26769 1.00195 7.77729 1.00195C8.11967 1.00195 8.49434 1.01062 8.95647 1.02922C9.88422 1.06654 10.6489 1.17998 11.3631 1.38612C12.2199 1.63338 13.1121 1.94117 13.7777 2.73453C14.1967 3.23396 14.4965 3.84696 14.6941 4.60849C15.018 5.85703 15.0988 7.23346 14.9484 8.94026C14.8878 9.62782 14.8063 10.3586 14.5398 11.071C14.0333 12.4243 13.0368 13.3011 11.578 13.6768C10.355 13.9919 9.07598 14.1516 7.77625 14.1517C7.58755 14.1517 7.39548 14.1483 7.20437 14.1417C7.19727 14.1492 7.18868 14.1585 7.17838 14.17C7.16909 14.1805 7.15945 14.1905 7.14949 14.2003C6.53697 14.7991 5.62117 15.5813 5.27647 15.8757C5.20906 15.9333 5.1629 15.9726 5.14488 15.9886C5.03177 16.0928 4.88698 16.1473 4.74012 16.1473ZM9.98792 10.697C9.93591 11.1642 9.68098 11.4251 9.42655 11.6743C9.1392 11.9557 8.79722 12.1229 8.38818 11.9582C8.07399 11.8317 7.7659 11.6875 7.46347 11.5345C6.51372 11.0542 5.68043 10.4123 4.96174 9.6285C4.11039 8.69994 3.4446 7.65309 3.05297 6.44236C2.95057 6.12587 3.00423 5.84369 3.25215 5.62671C3.48007 5.4272 3.72209 5.23913 3.97789 5.07811C4.16243 4.96197 4.38606 4.97346 4.55414 5.12423C5.02223 5.544 5.40513 6.0347 5.65338 6.61719C5.7375 6.81467 5.71895 7.0229 5.5267 7.17588C5.43259 7.2507 5.34393 7.33238 5.25152 7.40936C4.99712 7.62124 4.95753 7.76853 5.05935 8.0819C5.29082 8.79443 5.78822 9.28775 6.3886 9.68532C6.59121 9.81947 6.82791 9.90641 7.05699 9.99368C7.25216 10.068 7.41489 9.98621 7.54037 9.8259C7.60582 9.74227 7.66932 9.65712 7.73646 9.57499C7.92793 9.34088 8.26422 9.26348 8.51437 9.4318C8.95371 9.72734 9.38572 10.0356 9.80272 10.3618C9.90779 10.444 9.94449 10.6143 9.98792 10.697ZM12.6751 8.00684C12.4976 8.00684 12.3538 7.86314 12.3538 7.68596C12.3538 5.46308 10.5426 3.65471 8.31665 3.65471C8.13921 3.65471 7.9953 3.51101 7.9953 3.33383C7.9953 3.15664 8.13921 3.01295 8.31665 3.01295C10.8971 3.01295 12.9965 5.10928 12.9965 7.68591C12.9965 7.86314 12.8526 8.00684 12.6751 8.00684ZM10.6602 9.00574C10.4741 9.00574 10.3232 8.85454 10.3232 8.66809C10.3232 7.01786 8.98323 5.67519 7.33622 5.67519C7.15014 5.67519 6.99924 5.52399 6.99924 5.33755C6.99924 5.15111 7.15014 4.99991 7.33622 4.99991C9.35484 4.99991 10.9972 6.6454 10.9972 8.66805C10.9972 8.85454 10.8463 9.00574 10.6602 9.00574Z"></path></g><defs><clipPath id="clip0"><rect width="16" height="16"></rect></clipPath></defs></svg>