<svg viewBox="0 0 16 16" xmlns="http://www.w3.org/2000/svg"><path d= "M13.8843 8.07213C13.8843 11.2991 11.2483 13.915 7.99598 13.915C6.96351 13.915 5.99354 13.6511 5.14965 13.188L1.88965 14.2239L2.95251 11.089C2.41635 10.2086 2.10755 9.17603 2.10755 8.07213C2.10755 4.84517 4.74384 2.22928 7.99598 2.22928C11.2485 2.22928 13.8843 4.84517 13.8843 8.07213ZM7.99598 3.15979C5.266 3.15979 3.0454 5.36347 3.0454 8.07213C3.0454 9.14698 3.39577 10.1424 3.98844 10.9522L3.36992 12.7766L5.2724 12.1719C6.05405 12.6851 6.99043 12.9845 7.99611 12.9845C10.7257 12.9845 12.9467 10.781 12.9467 8.07239C12.9467 5.36374 10.7258 3.15979 7.99598 3.15979ZM10.9694 9.41779C10.9331 9.35822 10.837 9.32223 10.6928 9.25066C10.5483 9.1791 9.83849 8.83245 9.70654 8.78487C9.5742 8.73716 9.47771 8.71317 9.38162 8.85644C9.28553 8.99984 9.00886 9.32223 8.9245 9.41779C8.84027 9.51361 8.75617 9.52561 8.6117 9.45391C8.4675 9.38234 8.00251 9.23094 7.45116 8.74316C7.02215 8.3636 6.73241 7.89501 6.64818 7.75147C6.56409 7.6082 6.63939 7.53077 6.71149 7.45947C6.77652 7.39523 6.85596 7.29221 6.92806 7.20865C7.00042 7.12495 7.02441 7.06538 7.07226 6.96969C7.12064 6.87413 7.09651 6.79057 7.06026 6.71873C7.02428 6.64716 6.73534 5.94241 6.61513 5.65561C6.49492 5.36907 6.37484 5.41678 6.29048 5.41678C6.20638 5.41678 6.11002 5.40479 6.0138 5.40479C5.91758 5.40479 5.76111 5.44064 5.62877 5.58391C5.49656 5.72731 5.1238 6.07382 5.1238 6.77844C5.1238 7.48319 5.64077 8.16408 5.71313 8.25951C5.78524 8.35493 6.71135 9.84813 8.1787 10.4216C9.64617 10.9948 9.64617 10.8036 9.91085 10.7796C10.1753 10.7557 10.7646 10.4332 10.8853 10.099C11.0053 9.76417 11.0053 9.4775 10.9694 9.41779Z"/></svg>