<svg viewBox="0 0 16 16" xmlns="http://www.w3.org/2000/svg" ><path fill-rule="evenodd" d="M5.16504 12.7461C5.43848 12.7461 5.70052 12.6458 5.95117 12.4453L8.84961 9.34863C9.00456 9.79981 9.02962 10.276 8.9248 10.7773C8.81999 11.2786 8.5944 11.7025 8.24805 12.0488L7.05176 13.2451C6.55045 13.7464 5.93295 13.9971 5.19922 13.9971C4.46549 13.9971 3.84798 13.7464 3.34668 13.2451L2.75195 12.6436C2.25065 12.1377 2 11.5202 2 10.791C2 10.0618 2.25065 9.44662 2.75195 8.94531L3.94824 7.74902C4.2946 7.40267 4.70475 7.17708 5.17871 7.07227C5.65267 6.96745 6.11067 6.99251 6.55273 7.14746L3.64746 10.1484C3.41048 10.3581 3.29883 10.6064 3.3125 10.8936C3.32617 11.1807 3.43782 11.4313 3.64746 11.6455L4.44727 12.4453C4.65234 12.6458 4.8916 12.7461 5.16504 12.7461ZM5.52734 9.83398C5.52734 9.66081 5.60254 9.49902 5.75293 9.34863L9.34863 5.74609C9.49902 5.5957 9.66081 5.52051 9.83398 5.52051C10.0072 5.52051 10.1462 5.5957 10.251 5.74609C10.4014 5.84635 10.4766 5.98307 10.4766 6.15625C10.4766 6.32943 10.4014 6.49349 10.251 6.64844L6.64844 10.2441C6.49805 10.3945 6.33626 10.4697 6.16309 10.4697C5.98991 10.4697 5.85319 10.3945 5.75293 10.2441C5.60254 10.1439 5.52734 10.0072 5.52734 9.83398ZM12.6504 5.09668C12.6504 4.7959 12.5501 4.54525 12.3496 4.34473L11.5498 3.64746C11.3493 3.39681 11.0986 3.27148 10.7979 3.27148C10.4971 3.27148 10.2487 3.39681 10.0527 3.64746L7.14746 6.5459C6.99251 6.10384 6.96745 5.64584 7.07227 5.17188C7.17708 4.69791 7.40267 4.29004 7.74902 3.94824L8.95215 2.74512C9.45345 2.24837 10.0687 2 10.7979 2C11.527 2 12.1445 2.24837 12.6504 2.74512L13.252 3.34668C13.7487 3.84798 13.9971 4.46549 13.9971 5.19922C13.9971 5.93295 13.7487 6.54817 13.252 7.04492L12.0488 8.24805C11.7025 8.5944 11.2809 8.81999 10.7842 8.9248C10.2874 9.02962 9.8431 9.00456 9.45117 8.84961L12.3496 5.84863C12.5501 5.64811 12.6504 5.39746 12.6504 5.09668Z" clip-rule="evenodd"></path></svg>